<?xml version="1.0" encoding="UTF-8"?>
<svg height="16px" viewBox="0 0 16 16" width="16px" xmlns="http://www.w3.org/2000/svg" xmlns:xlink="http://www.w3.org/1999/xlink">
    <filter id="a" height="100%" width="100%" x="0%" y="0%">
        <feColorMatrix color-interpolation-filters="sRGB" values="0 0 0 0 1 0 0 0 0 1 0 0 0 0 1 0 0 0 1 0"/>
    </filter>
    <mask id="b">
        <g filter="url(#a)">
            <rect fill-opacity="0.187401" height="19.2" width="19.2" x="-1.6" y="-1.6"/>
        </g>
    </mask>
    <clipPath id="c">
        <rect height="152" width="192"/>
    </clipPath>
    <mask id="d">
        <g filter="url(#a)">
            <rect fill-opacity="0.842952" height="19.2" width="19.2" x="-1.6" y="-1.6"/>
        </g>
    </mask>
    <clipPath id="e">
        <rect height="152" width="192"/>
    </clipPath>
    <g mask="url(#b)">
        <g clip-path="url(#c)" transform="matrix(1 0 0 1 -168 -16)">
            <path d="m 92.972656 80.4375 c -4.054687 0 -30.417968 5.175781 -34.027344 7.023438 l -7.09375 3.628906 c -3.371093 1.726562 -5.492187 5.195312 -5.488281 8.980468 v 15.855469 c 0 6.414063 3.304688 12.027344 8.316407 15.234375 l 23.25 -26.972656 l -8.75 -6.75 l 11 2 l 11.75 -11 l 7.328124 -8 z m 0 0"/>
        </g>
    </g>
    <g mask="url(#d)">
        <g clip-path="url(#e)" transform="matrix(1 0 0 1 -168 -16)">
            <path d="m 184 19 l -16 13 v -2 l 4 -3 v -4 l 1 -1 l 2 2 l -0.222656 -3.617188 l 2.320312 -2.054687 l 1.210938 2.367187 v -3.5625 c 2.257812 -2.070312 5.691406 -1.195312 5.691406 1.867188 z m 0 0"/>
        </g>
    </g>
    <path d="m 4 12 h 6 l 4 -3 l -4 -1 l 4.238281 -1 c 1.273438 -1 1.246094 -2.390625 1.246094 -4" fill="none" stroke="#262626" stroke-linecap="round" stroke-linejoin="round"/>
</svg>
