<?xml version="1.0" encoding="UTF-8"?>
<svg height="128px" viewBox="0 0 128 128" width="128px" xmlns="http://www.w3.org/2000/svg" xmlns:xlink="http://www.w3.org/1999/xlink">
    <defs>
        <filter id="a" height="100%" width="100%" x="0%" y="0%">
            <feColorMatrix color-interpolation-filters="sRGB" values="0 0 0 0 1 0 0 0 0 1 0 0 0 0 1 0 0 0 1 0"/>
        </filter>
        <radialGradient id="b" cx="89.83065" cy="279.757629" gradientTransform="matrix(1.587916 -0.0462435 0.0322784 1.108369 -73.673655 -211.053406)" gradientUnits="userSpaceOnUse" r="26.5">
            <stop offset="0" stop-color="#fdf8fd"/>
            <stop offset="0.586528" stop-color="#f5ebf5"/>
            <stop offset="0.747837" stop-color="#dcc4dd"/>
            <stop offset="1" stop-color="#9f7cac"/>
        </radialGradient>
        <linearGradient id="c" gradientUnits="userSpaceOnUse" x1="88.114632" x2="87.75" y1="236.435974" y2="248.188019">
            <stop offset="0" stop-color="#dc8add"/>
            <stop offset="1" stop-color="#ffffff"/>
        </linearGradient>
        <linearGradient id="d" gradientUnits="userSpaceOnUse" x1="47.79460685126" x2="112.20535012179" y1="105.05048764474" y2="105.05048764474">
            <stop offset="0" stop-color="#1f132a"/>
            <stop offset="0.0438079" stop-color="#a1aff7"/>
            <stop offset="0.141404" stop-color="#3b1f4e"/>
            <stop offset="0.796319" stop-color="#613583"/>
            <stop offset="0.920373" stop-color="#9e8eb7"/>
            <stop offset="1" stop-color="#41245b"/>
        </linearGradient>
        <mask id="e">
            <g filter="url(#a)">
                <rect fill-opacity="0.187401" height="153.6" width="153.6" x="-12.8" y="-12.8"/>
            </g>
        </mask>
        <clipPath id="f">
            <path d="m 18 15 h 104 v 95 h -104 z m 0 0"/>
        </clipPath>
        <clipPath id="g">
            <path d="m 18.210938 109.335938 v -32.878907 l 24.113281 -24.113281 l 4.382812 17.535156 l 2.191407 -21.917968 s 28.5 -32.882813 46.035156 -32.882813 s 26.304687 10.960937 26.304687 10.960937 l -37.265625 39.457032 h -13.152344 l 10.960938 4.382812 l -13.152344 13.152344 h -19.730468 l 15.347656 2.191406 l -21.921875 24.113282 z m 0 0"/>
        </clipPath>
        <clipPath id="h">
            <path d="m 18 95 h 53 v 15 h -53 z m 0 0"/>
        </clipPath>
        <clipPath id="i">
            <path d="m 18.210938 109.335938 v -32.878907 l 24.113281 -24.113281 l 4.382812 17.535156 l 2.191407 -21.917968 s 28.5 -32.882813 46.035156 -32.882813 s 26.304687 10.960937 26.304687 10.960937 l -37.265625 39.457032 h -13.152344 l 10.960938 4.382812 l -13.152344 13.152344 h -19.730468 l 15.347656 2.191406 l -21.921875 24.113282 z m 0 0"/>
        </clipPath>
        <mask id="j">
            <g filter="url(#a)">
                <rect fill-opacity="0.842952" height="153.6" width="153.6" x="-12.8" y="-12.8"/>
            </g>
        </mask>
        <clipPath id="k">
            <path d="m 0 0 h 128 v 128 h -128 z m 0 0"/>
        </clipPath>
        <mask id="l">
            <g filter="url(#a)">
                <rect fill-opacity="0.187401" height="221.184" width="221.184" x="-46.592" y="-46.592"/>
            </g>
        </mask>
        <clipPath id="m">
            <rect height="152" width="192"/>
        </clipPath>
        <g id="n" clip-path="url(#m)">
            <path d="m 92.972656 80.4375 c -4.054687 0 -30.417968 5.175781 -34.027344 7.023438 l -7.09375 3.628906 c -3.371093 1.726562 -5.492187 5.195312 -5.488281 8.980468 v 15.855469 c 0 6.414063 3.304688 12.027344 8.316407 15.234375 l 23.25 -26.972656 l -8.75 -6.75 l 11 2 l 11.75 -11 l 7.328124 -8 z m 0 0"/>
        </g>
        <clipPath id="o">
            <path d="m 18 15 h 104 v 95 h -104 z m 0 0"/>
        </clipPath>
        <clipPath id="p">
            <path d="m 18.210938 109.335938 v -32.878907 l 24.113281 -24.113281 l 4.382812 17.535156 l 2.191407 -21.917968 s 28.5 -32.882813 46.035156 -32.882813 s 26.304687 10.960937 26.304687 10.960937 l -37.265625 39.457032 h -13.152344 l 10.960938 4.382812 l -13.152344 13.152344 h -19.730468 l 15.347656 2.191406 l -21.921875 24.113282 z m 0 0"/>
        </clipPath>
        <clipPath id="q">
            <path d="m 18 95 h 53 v 15 h -53 z m 0 0"/>
        </clipPath>
        <clipPath id="r">
            <path d="m 18.210938 109.335938 v -32.878907 l 24.113281 -24.113281 l 4.382812 17.535156 l 2.191407 -21.917968 s 28.5 -32.882813 46.035156 -32.882813 s 26.304687 10.960937 26.304687 10.960937 l -37.265625 39.457032 h -13.152344 l 10.960938 4.382812 l -13.152344 13.152344 h -19.730468 l 15.347656 2.191406 l -21.921875 24.113282 z m 0 0"/>
        </clipPath>
        <clipPath id="s">
            <path d="m 0 29 h 94 v 91 h -94 z m 0 0"/>
        </clipPath>
        <clipPath id="t">
            <path d="m 0 0 h 128 v 128 h -128 z m 0 0"/>
        </clipPath>
        <mask id="u">
            <g filter="url(#a)">
                <rect fill-opacity="0.842952" height="221.184" width="221.184" x="-46.592" y="-46.592"/>
            </g>
        </mask>
        <clipPath id="v">
            <rect height="152" width="192"/>
        </clipPath>
        <g id="w" clip-path="url(#v)">
            <path d="m 184 19 l -16 13 v -2 l 4 -3 v -4 l 1 -1 l 2 2 l -0.222656 -3.617188 l 2.320312 -2.054687 l 1.210938 2.367187 v -3.5625 c 2.257812 -2.070312 5.691406 -1.195312 5.691406 1.867188 z m 0 0"/>
        </g>
        <clipPath id="x">
            <rect height="128" width="128"/>
        </clipPath>
        <clipPath id="y">
            <rect height="128" width="128"/>
        </clipPath>
        <mask id="z">
            <g filter="url(#a)">
                <g clip-path="url(#y)" filter="url(#a)">
                    <g clip-path="url(#x)">
                        <path d="m 62.605469 68.648438 h 33.246093 c 4.054688 0 8.050782 0.964843 11.660157 2.8125 l 7.09375 3.632812 c 3.371093 1.722656 5.492187 5.191406 5.492187 8.976562 v 15.855469 c 0 10.011719 -8.0625 18.074219 -18.074218 18.074219 h -45.585938 c -10.015625 0 -18.078125 -8.0625 -18.078125 -18.074219 v -15.855469 c 0 -3.785156 2.121094 -7.253906 5.492187 -8.976562 l 7.09375 -3.632812 c 3.609376 -1.847657 7.605469 -2.8125 11.660157 -2.8125 z m 0 0" fill="url(#b)"/>
                        <path d="m 61.261719 236.4375 h 37.476562 c 2.761719 0 4.996094 2.089844 4.996094 4.667969 s -2.234375 4.667969 -4.996094 4.667969 h -37.476562 c -2.761719 0 -4.996094 -2.089844 -4.996094 -4.667969 s 2.234375 -4.667969 4.996094 -4.667969 z m 0 0" fill="#9f7cac" stroke="url(#c)" stroke-linecap="round" stroke-linejoin="round" stroke-width="4.83002" transform="matrix(1 0 0 1 0 -172)"/>
                        <path d="m 55.621094 84.070312 h 48.757812 c 4.421875 0 8.007813 3.585938 8.007813 8.007813 v 8.660156 c 0 4.421875 -3.585938 8.007813 -8.007813 8.007813 h -48.757812 c -4.421875 0 -8.007813 -3.585938 -8.007813 -8.007813 v -8.660156 c 0 -4.421875 3.585938 -8.007813 8.007813 -8.007813 z m 0 0" fill="url(#d)"/>
                        <path d="m 53.011719 84.070312 h 53.976562 c 2.980469 0 5.398438 2.417969 5.398438 5.398438 s -2.417969 5.398438 -5.398438 5.398438 h -53.976562 c -2.980469 0 -5.398438 -2.417969 -5.398438 -5.398438 s 2.417969 -5.398438 5.398438 -5.398438 z m 0 0" fill="#9141ac"/>
                        <g clip-path="url(#k)">
                            <g mask="url(#l)">
                                <use transform="matrix(1 0 0 1 -8 -16)" xlink:href="#n"/>
                            </g>
                        </g>
                        <g clip-path="url(#o)">
                            <g clip-path="url(#p)">
                                <path d="m 2.570312 -2.457031 h 133.199219 c 1.960938 0 3.546875 1.585937 3.546875 3.542969 v 109.089843 c 0 1.957031 -1.585937 3.542969 -3.546875 3.542969 h -133.199219 c -1.957031 0 -3.542968 -1.585938 -3.542968 -3.542969 v -109.089843 c 0 -1.957032 1.585937 -3.542969 3.542968 -3.542969 z m 0 0" fill="#f6f5f4"/>
                            </g>
                        </g>
                        <g clip-path="url(#q)">
                            <g clip-path="url(#r)">
                                <path d="m 11.195312 95.644531 h 34.328126 c 4.1875 0 8.3125 0.996094 12.039062 2.90625 l 7.324219 3.746094 c 3.480469 1.78125 5.671875 5.363281 5.671875 9.273437 v 16.367188 c 0 10.339844 -8.324219 18.664062 -18.664063 18.664062 h -47.070312 c -10.335938 0 -18.660157 -8.324218 -18.660157 -18.664062 v -16.367188 c 0 -3.910156 2.1875 -7.492187 5.667969 -9.273437 l 7.324219 -3.746094 c 3.726562 -1.910156 7.851562 -2.90625 12.039062 -2.90625 z m 0 0" fill="#f6f5f4"/>
                            </g>
                        </g>
                        <g clip-path="url(#s)">
                            <path d="m 93.132812 29.214844 l -84.234374 90.746094 h -9 z m 0 0" fill="#9a9996"/>
                        </g>
                        <path d="m 93.132812 29.214844 l -84.234374 90.746094 h -4.5 z m 0 0" fill="#5e5c64"/>
                        <g clip-path="url(#t)">
                            <g mask="url(#u)">
                                <use transform="matrix(1 0 0 1 -8 -16)" xlink:href="#w"/>
                            </g>
                        </g>
                    </g>
                </g>
            </g>
        </mask>
        <mask id="A">
            <g filter="url(#a)">
                <rect fill-opacity="0.8" height="184.32" width="184.32" x="-28.16" y="-28.16"/>
            </g>
        </mask>
        <linearGradient id="B" gradientTransform="matrix(0 0.37 -0.98462 0 295.38501 -30.360001)" gradientUnits="userSpaceOnUse" x1="300" x2="428" y1="235" y2="235">
            <stop offset="0" stop-color="#f9f06b"/>
            <stop offset="1" stop-color="#f5c211"/>
        </linearGradient>
        <clipPath id="C">
            <rect height="128" width="128"/>
        </clipPath>
        <clipPath id="D">
            <rect height="128" width="128"/>
        </clipPath>
    </defs>
    <path d="m 62.605469 68.648438 h 33.246093 c 4.054688 0 8.050782 0.964843 11.660157 2.8125 l 7.09375 3.632812 c 3.371093 1.722656 5.492187 5.191406 5.492187 8.976562 v 15.855469 c 0 10.011719 -8.0625 18.074219 -18.074218 18.074219 h -45.585938 c -10.015625 0 -18.078125 -8.0625 -18.078125 -18.074219 v -15.855469 c 0 -3.785156 2.121094 -7.253906 5.492187 -8.976562 l 7.09375 -3.632812 c 3.609376 -1.847657 7.605469 -2.8125 11.660157 -2.8125 z m 0 0" fill="url(#b)"/>
    <path d="m 61.261719 236.4375 h 37.476562 c 2.761719 0 4.996094 2.089844 4.996094 4.667969 s -2.234375 4.667969 -4.996094 4.667969 h -37.476562 c -2.761719 0 -4.996094 -2.089844 -4.996094 -4.667969 s 2.234375 -4.667969 4.996094 -4.667969 z m 0 0" fill="#9f7cac" stroke="url(#c)" stroke-linecap="round" stroke-linejoin="round" stroke-width="4.83002" transform="matrix(1 0 0 1 0 -172)"/>
    <path d="m 55.621094 84.070312 h 48.757812 c 4.421875 0 8.007813 3.585938 8.007813 8.007813 v 8.660156 c 0 4.421875 -3.585938 8.007813 -8.007813 8.007813 h -48.757812 c -4.421875 0 -8.007813 -3.585938 -8.007813 -8.007813 v -8.660156 c 0 -4.421875 3.585938 -8.007813 8.007813 -8.007813 z m 0 0" fill="url(#d)"/>
    <path d="m 53.011719 84.070312 h 53.976562 c 2.980469 0 5.398438 2.417969 5.398438 5.398438 s -2.417969 5.398438 -5.398438 5.398438 h -53.976562 c -2.980469 0 -5.398438 -2.417969 -5.398438 -5.398438 s 2.417969 -5.398438 5.398438 -5.398438 z m 0 0" fill="#9141ac"/>
    <g mask="url(#e)">
        <use transform="matrix(1 0 0 1 -8 -16)" xlink:href="#n"/>
    </g>
    <g clip-path="url(#f)">
        <g clip-path="url(#g)">
            <path d="m 2.570312 -2.457031 h 133.199219 c 1.960938 0 3.546875 1.585937 3.546875 3.542969 v 109.089843 c 0 1.957031 -1.585937 3.542969 -3.546875 3.542969 h -133.199219 c -1.957031 0 -3.542968 -1.585938 -3.542968 -3.542969 v -109.089843 c 0 -1.957032 1.585937 -3.542969 3.542968 -3.542969 z m 0 0" fill="#f6f5f4"/>
        </g>
    </g>
    <g clip-path="url(#h)">
        <g clip-path="url(#i)">
            <path d="m 11.195312 95.644531 h 34.328126 c 4.1875 0 8.3125 0.996094 12.039062 2.90625 l 7.324219 3.746094 c 3.480469 1.78125 5.671875 5.363281 5.671875 9.273437 v 16.367188 c 0 10.339844 -8.324219 18.664062 -18.664063 18.664062 h -47.070312 c -10.335938 0 -18.660157 -8.324218 -18.660157 -18.664062 v -16.367188 c 0 -3.910156 2.1875 -7.492187 5.667969 -9.273437 l 7.324219 -3.746094 c 3.726562 -1.910156 7.851562 -2.90625 12.039062 -2.90625 z m 0 0" fill="#f6f5f4"/>
        </g>
    </g>
    <path d="m 93.132812 29.214844 l -84.234374 90.746094 h -9 z m 0 0" fill="#9a9996"/>
    <path d="m 93.132812 29.214844 l -84.234374 90.746094 h -4.5 z m 0 0" fill="#5e5c64"/>
    <g mask="url(#j)">
        <use transform="matrix(1 0 0 1 -8 -16)" xlink:href="#w"/>
    </g>
    <g mask="url(#z)">
        <g clip-path="url(#D)">
            <g mask="url(#A)">
                <g clip-path="url(#C)">
                    <path d="m 128 80.640625 v 47.359375 h -128 v -47.359375 z m 0 0" fill="url(#B)"/>
                    <path d="m 13.308594 80.640625 l 47.355468 47.359375 h 21.214844 l -47.359375 -47.359375 z m 42.421875 0 l 47.363281 47.359375 h 21.214844 l -47.363282 -47.359375 z m 42.429687 0 l 29.839844 29.839844 v -21.210938 l -8.628906 -8.628906 z m -98.160156 7.90625 v 21.214844 l 18.238281 18.238281 h 21.214844 z m 0 0"/>
                </g>
            </g>
        </g>
    </g>
</svg>
